HIERARCHY
ROOT WRIST
{
	OFFSET 0.000000 0.000000 0.000000
	CHANNELS 6 Xposition Yposition Zposition Yrotation Xrotation Zrotation
	JOINT THUMB_CMC_FE
	{
		OFFSET -0.225143 0.117753 -0.062308
		CHANNELS 3 Yrotation Xrotation Zrotation
		JOINT THUMB_CMC_AA
		{
			OFFSET -0.212856 -0.150507 0.098851
			CHANNELS 3 Yrotation Xrotation Zrotation
			JOINT THUMB_MCP_FE
			{
				OFFSET 0.322503 -0.167445 -0.031436
				CHANNELS 3 Yrotation Xrotation Zrotation
				JOINT THUMB_IP_FE
				{
					OFFSET -0.295233 -0.236404 0.025845
					CHANNELS 3 Yrotation Xrotation Zrotation
					End Site
					{
						OFFSET 0.000000 0.000000 0.000000
					}
				}
			}
		}
	}
	JOINT INDEX_MCP
	{
		OFFSET -1.076913 0.264198 -0.014768
		CHANNELS 3 Yrotation Xrotation Zrotation
		JOINT INDEX_PIP_FE
		{
			OFFSET -0.425053 0.013289 0.013619
			CHANNELS 3 Yrotation Xrotation Zrotation
			JOINT INDEX_DIP_FE
			{
				OFFSET -0.271505 -0.024898 0.000550
				CHANNELS 3 Yrotation Xrotation Zrotation
				End Site
				{
					OFFSET 0.000000 0.000000 0.000000
				}
			}
		}
	}
	JOINT MIDDLE_MCP
	{
		OFFSET -1.072991 0.019362 0.038780
		CHANNELS 3 Yrotation Xrotation Zrotation
		JOINT MIDDLE_PIP_FE
		{
			OFFSET -0.480704 0.002618 0.028696
			CHANNELS 3 Yrotation Xrotation Zrotation
			JOINT MIDDLE_DIP_FE
			{
				OFFSET -0.307486 -0.031129 -0.000643
				CHANNELS 3 Yrotation Xrotation Zrotation
				End Site
				{
					OFFSET 0.000000 0.000000 0.000000
				}
			}
		}
	}
	JOINT RING_MCP
	{
		OFFSET -0.994992 -0.195930 -0.005938
		CHANNELS 3 Yrotation Xrotation Zrotation
		JOINT RING_PIP_FE
		{
			OFFSET -0.436995 0.003792 0.019994
			CHANNELS 3 Yrotation Xrotation Zrotation
			JOINT RING_DIP_FE
			{
				OFFSET -0.295558 -0.038341 -0.006642
				CHANNELS 3 Yrotation Xrotation Zrotation
				End Site
				{
					OFFSET 0.000000 0.000000 0.000000
				}
			}
		}
	}
	JOINT PINKY_MCP
	{
		OFFSET -0.873858 -0.393246 -0.086282
		CHANNELS 3 Yrotation Xrotation Zrotation
		JOINT PINKY_PIP_FE
		{
			OFFSET -0.343972 -0.016492 0.013445
			CHANNELS 3 Yrotation Xrotation Zrotation
			JOINT PINKY_DIP_FE
			{
				OFFSET -0.224713 -0.036309 -0.010265
				CHANNELS 3 Yrotation Xrotation Zrotation
				End Site
				{
					OFFSET 0.000000 0.000000 0.000000
				}
			}
		}
	}
}
MOTION
Frames: 7
Frame Time: 0.008333334
0.436276 0.994054 4.275881 38.698600 -34.071290 -26.864230 -61.461210 4.834453 -69.099060 -119.352900 -30.976900 -16.099210 112.863900 -65.843260 31.708000 -4.562103 -8.459839 3.186784 178.827100 3.446449 165.848100 41.978100 -86.125520 -26.073000 2.052630 1.705001 24.999440 176.639900 -1.096649 161.576500 39.240760 -88.411190 -11.940190 6.002526 4.395462 -0.671997 -161.571400 -0.773956 162.739900 31.479640 -85.617800 10.520420 -0.199310 0.562945 -4.019104 -152.323200 -2.970551 164.282600 48.977640 -83.530640 -8.137848 -5.539795 0.809197 21.984300 
0.453023 1.001751 4.288045 39.249870 -34.107820 -27.252780 -61.461180 4.834441 -69.223420 -119.352900 -30.976900 -16.083770 112.863900 -65.843260 31.531570 -4.562103 -8.459839 2.158804 178.713200 3.445854 166.010000 41.978240 -86.125550 -25.741210 2.052624 1.705000 25.472650 176.119700 -1.147461 161.659100 39.241280 -88.411320 -13.061430 6.002526 4.395472 -0.135529 -161.652600 -0.795624 162.757200 31.479670 -85.617800 10.187130 -0.199310 0.562935 -2.085907 -152.337500 -2.976379 164.152900 48.977620 -83.530580 -7.432648 -5.539795 0.809185 21.493270 
0.468988 1.009492 4.298209 39.930520 -33.992650 -27.716520 -61.461180 4.834463 -69.343020 -119.352900 -30.976930 -16.146270 112.863900 -65.843260 31.460490 -4.562103 -8.459839 2.207684 178.076300 3.442334 166.001200 41.978010 -86.125610 -25.780490 2.052634 1.705007 25.508580 175.615200 -1.196594 161.614400 39.240720 -88.411440 -12.505740 6.002529 4.395442 -0.510407 -162.174200 -0.934815 162.587700 31.479660 -85.617800 10.483170 -0.199310 0.562932 -2.252411 -152.672500 -3.112549 163.947300 48.977600 -83.530580 -7.239441 -5.539795 0.809193 20.555710 
0.487377 1.019470 4.310723 39.701070 -33.452940 -27.696500 -61.461180 4.834470 -68.765470 -119.352900 -30.976900 -16.166230 112.863900 -65.843260 31.267390 -4.562103 -8.459839 3.655197 178.331700 3.443787 165.793300 41.978240 -86.125550 -25.694460 2.052632 1.704999 26.020770 176.234300 -1.136261 161.435600 39.240940 -88.411320 -11.756530 6.002523 4.395460 -0.865479 -161.597800 -0.781006 162.520400 31.479710 -85.617680 10.564820 -0.199310 0.562901 -2.798950 -152.153800 -2.901642 164.075700 48.977520 -83.530580 -7.620453 -5.539795 0.809169 20.949160 
0.504577 1.026059 4.322926 40.177960 -33.606570 -28.059020 -61.461180 4.834455 -69.289920 -119.352900 -30.976900 -16.135590 112.863900 -65.843260 31.667690 -4.562073 -8.459839 3.775037 178.426100 3.444324 165.944500 41.978290 -86.125610 -25.599090 2.052630 1.705007 25.988320 176.139100 -1.145569 161.520000 39.241110 -88.411190 -11.705380 6.002523 4.395452 -0.549194 -161.857400 -0.850311 162.489800 31.479700 -85.617800 11.076070 -0.199310 0.562918 -4.518616 -152.535900 -3.057007 164.023800 48.977580 -83.530640 -8.057861 -5.539795 0.809182 21.386100 
0.521286 1.031103 4.333883 40.387860 -33.179050 -28.339110 -61.461180 4.834461 -68.897250 -119.352900 -30.976900 -16.027440 112.863900 -65.843260 30.947580 -4.562103 -8.459839 3.669094 178.246600 3.443308 165.710600 41.978220 -86.125610 -25.320980 2.052633 1.705016 26.152940 176.055100 -1.153717 161.246800 39.240810 -88.411320 -11.796630 6.002519 4.395437 -0.179047 -161.715000 -0.812286 162.395900 31.479570 -85.617800 10.562640 -0.199310 0.562935 -2.200012 -152.282100 -2.953827 163.914200 48.977630 -83.530580 -7.796356 -5.539795 0.809199 21.280960 
0.539263 1.038103 4.346154 40.612260 -33.009740 -28.511170 -61.461180 4.834455 -68.800480 -119.352900 -30.976900 -16.094240 112.863900 -65.843290 30.905820 -4.562073 -8.459839 3.290840 178.154900 3.442784 165.812200 41.978150 -86.125610 -25.328520 2.052627 1.705005 26.036720 175.979100 -1.161133 161.242500 39.240910 -88.411070 -12.281340 6.002521 4.395452 0.596030 -161.753600 -0.822571 162.354500 31.479640 -85.617740 10.532080 -0.199310 0.562915 -1.617645 -152.222100 -2.929413 163.911000 48.977630 -83.530550 -7.389862 -5.539795 0.809173 21.561050 
